<svg width="317" height="70" viewBox="0 0 317 70" fill="none" xmlns="http://www.w3.org/2000/svg">
<path fill-rule="evenodd" clip-rule="evenodd" d="M2.92 66.182C2.92 64.086 4.717 62.514 6.663 62.514C9.359 62.514 10.557 64.16 11.156 66.031C12.953 65.658 14.151 63.037 15.424 59.219L17.97 51.432H17.82L5.989 24.402C4.267 20.508 3.968 19.91 1.646 19.759L0.224 19.684L0 19.235H16.397L16.173 19.684L14.899 19.759C12.054 19.91 11.755 20.882 12.953 23.653L21.114 42.896L26.43 28.071C28.901 21.107 28.377 20.208 23.36 19.759L22.312 19.684L22.088 19.235H34.966L34.741 19.684L33.618 19.759C30.174 19.984 29.875 21.033 27.029 28.969L18.943 50.908L16.022 59.967C14.001 66.48 11.605 70 7.412 70C5.016 70 2.92 68.353 2.92 66.182" fill="#0A0B09"/>
<path fill-rule="evenodd" clip-rule="evenodd" d="M59.597 28.52C59.597 23.728 58.1 18.861 53.682 18.861C49.564 18.861 46.12 23.653 45.221 28.669L59.597 28.52ZM38.034 35.707C38.034 26.049 44.623 18.112 54.282 18.112C61.919 18.112 66.411 22.23 66.411 28.369C66.411 28.744 66.337 28.894 66.262 29.418L45.072 29.343C44.923 30.392 44.847 32.338 44.847 33.387C44.847 41.998 49.864 47.389 56.378 47.389C60.646 47.389 63.791 46.189 66.636 41.473L67.16 41.773C63.566 48.137 59.224 51.807 53.084 51.807C44.323 51.807 38.034 44.842 38.034 35.707V35.707Z" fill="#0A0B09"/>
<path fill-rule="evenodd" clip-rule="evenodd" d="M73.297 50.383L74.569 50.309C76.89 50.158 77.715 50.084 77.715 49.185V9.87499C77.715 5.30899 77.19 4.70899 74.644 4.03599L72.997 3.58599L73.072 3.28699L84.004 0.441986V49.336C84.004 49.934 84.453 50.01 87.748 50.309L88.796 50.383L89.02 50.832H73.147L73.297 50.383" fill="#0A0B09"/>
<path fill-rule="evenodd" clip-rule="evenodd" d="M95.157 50.383L96.43 50.309C98.751 50.158 99.575 50.084 99.575 49.185V9.87499C99.575 5.30899 99.051 4.70899 96.505 4.03599L94.857 3.58599L94.933 3.28699L105.864 0.441986V49.336C105.864 49.934 106.313 50.01 109.608 50.309L110.656 50.383L110.881 50.832H95.008L95.157 50.383" fill="#0A0B09"/>
<path fill-rule="evenodd" clip-rule="evenodd" d="M143.675 35.482C143.675 29.643 142.402 24.027 139.632 21.257C138.209 19.91 136.486 18.711 133.866 18.711C127.277 18.711 124.357 26.797 124.357 34.135C124.357 40.275 125.405 45.74 128.251 48.586C129.897 50.234 131.694 51.207 134.091 51.207C140.23 51.207 143.675 43.42 143.675 35.482ZM116.795 35.109C116.795 25.674 124.057 18.112 134.015 18.112C144.049 18.112 151.237 25.375 151.237 34.809C151.237 44.392 143.974 51.807 134.015 51.807C123.982 51.807 116.795 44.543 116.795 35.109V35.109Z" fill="#0A0B09"/>
<path fill-rule="evenodd" clip-rule="evenodd" d="M160.742 25.6C158.796 20.508 158.347 19.91 155.801 19.759L154.453 19.684L154.228 19.235H170.85L170.701 19.684L169.428 19.759C166.432 19.91 165.759 20.359 166.882 23.128L174.819 43.346L181.484 27.696L179.836 23.802C178.413 20.433 177.964 19.984 175.268 19.759L174.22 19.684L173.921 19.235H190.244L190.094 19.684L188.821 19.759C186.05 19.91 185.676 20.808 186.575 23.128L195.26 43.42L200.577 28.819C203.047 21.931 202.523 20.208 197.432 19.759L196.383 19.684L196.159 19.235H209.037L208.813 19.684L207.764 19.759C204.32 19.984 204.095 21.182 201.25 29.268L193.089 51.582H192.04L181.933 28.52L172.198 51.582H171.075L160.742 25.6" fill="#0A0B09"/>
<path fill-rule="evenodd" clip-rule="evenodd" d="M232.167 35.707C232.167 26.123 238.756 18.112 248.939 18.112C254.929 18.112 260.17 20.583 260.17 24.926C260.17 27.022 258.449 28.819 256.426 28.819C254.255 28.819 252.608 27.097 252.608 25.225C252.608 22.754 254.106 21.781 254.106 21.182C254.106 20.208 251.634 18.711 249.314 18.711C243.473 18.711 238.981 24.776 238.981 33.312C238.981 42.072 243.997 47.389 250.511 47.389C254.78 47.389 257.4 46.189 260.245 41.473L260.844 41.773C257.326 48.137 253.282 51.807 247.142 51.807C238.456 51.807 232.167 44.842 232.167 35.707" fill="#0A0B09"/>
<path fill-rule="evenodd" clip-rule="evenodd" d="M293.637 35.482C293.637 29.643 292.365 24.027 289.594 21.257C288.171 19.91 286.449 18.711 283.828 18.711C277.24 18.711 274.32 26.797 274.32 34.135C274.32 40.275 275.368 45.74 278.213 48.586C279.86 50.234 281.657 51.207 284.053 51.207C290.193 51.207 293.637 43.42 293.637 35.482ZM266.757 35.109C266.757 25.674 274.02 18.112 283.978 18.112C294.011 18.112 301.2 25.375 301.2 34.809C301.2 44.392 293.937 51.807 283.978 51.807C273.945 51.807 266.757 44.543 266.757 35.109V35.109Z" fill="#0A0B09"/>
<path fill-rule="evenodd" clip-rule="evenodd" d="M307.41 47.238C307.41 44.992 309.357 42.896 311.977 42.896C314.598 42.896 316.47 44.992 316.47 47.238C316.47 49.635 314.598 51.73 311.977 51.73C309.357 51.73 307.41 49.635 307.41 47.238" fill="#0A0B09"/>
</svg>
